<?xml version="1.0" standalone="no"?>
<!DOCTYPE svg PUBLIC "-//W3C//DTD SVG 20010904//EN"
 "http://www.w3.org/TR/2001/REC-SVG-20010904/DTD/svg10.dtd">
<svg version="1.0" xmlns="http://www.w3.org/2000/svg"
 width="1000.000000pt" height="1000.000000pt" viewBox="0 0 1000.000000 1000.000000"
 preserveAspectRatio="xMidYMid meet">
<metadata>
Created by potrace 1.14, written by Peter Selinger 2001-2017
</metadata>
<g transform="translate(0.000000,1000.000000) scale(0.100000,-0.100000)"
fill="#000000" stroke="none">
<path d="M3397 9304 c-2 -2 -195 -4 -430 -5 -269 -1 -440 -5 -462 -12 -27 -8
-37 -18 -47 -46 -9 -28 -12 -440 -13 -1846 0 -995 3 -1830 7 -1854 14 -78 21
-80 368 -84 220 -2 248 -4 277 -22 46 -27 68 -99 76 -252 0 -7 4 -13 9 -13 4
0 8 -6 8 -14 0 -14 36 -32 53 -28 4 1 7 -3 7 -9 0 -6 9 -9 20 -6 11 3 18 1 15
-3 -3 -5 3 -11 13 -14 10 -3 19 -14 20 -23 1 -10 3 -34 5 -53 8 -72 -17 -114
-83 -140 -50 -19 -68 -38 -97 -99 -14 -30 -34 -56 -44 -58 -11 -3 -19 -9 -19
-13 0 -4 -12 -11 -26 -14 -34 -9 -45 -21 -72 -78 -22 -49 -68 -98 -89 -98 -7
0 -13 -5 -13 -11 0 -5 -4 -8 -9 -5 -11 7 -41 -27 -46 -51 -2 -10 -4 -18 -5
-18 -6 0 -10 -214 -14 -810 -5 -712 -8 -783 -31 -819 -30 -45 -60 -50 -340
-51 -190 -1 -270 -5 -293 -14 -21 -9 -41 -31 -61 -66 -24 -43 -42 -60 -88 -84
-49 -26 -63 -40 -88 -89 -24 -45 -39 -62 -75 -80 -44 -22 -90 -63 -90 -80 0
-41 -61 -104 -113 -117 -27 -7 -46 -31 -82 -100 -15 -30 -34 -48 -77 -70 -48
-25 -62 -39 -86 -85 -23 -44 -41 -62 -88 -91 -42 -25 -66 -49 -84 -81 -36 -65
-47 -76 -100 -99 -39 -17 -84 -64 -85 -89 0 -12 -41 -69 -50 -70 -14 -3 -77
-37 -95 -52 -9 -7 -24 -32 -34 -54 -18 -42 -55 -77 -100 -94 -29 -11 -55 -46
-63 -86 -9 -49 -9 -457 0 -496 19 -76 -7 -73 516 -76 256 -1 482 -2 501 -2 19
0 1724 1 3787 3 l3753 2 27 28 28 27 2 263 c1 144 0 275 -4 290 -5 26 -16 38
-100 114 -17 15 -41 46 -52 68 -11 22 -40 56 -63 75 -23 19 -51 46 -63 59 -11
13 -26 29 -32 37 -7 7 -13 15 -13 19 0 12 -45 50 -82 69 -20 11 -64 50 -99 88
-34 37 -68 68 -74 68 -21 0 -77 49 -111 98 -19 27 -52 58 -72 68 -49 25 -88
65 -106 108 -15 35 -49 76 -65 76 -13 0 -101 87 -101 99 0 15 -71 92 -79 86
-9 -5 -93 68 -93 81 -2 37 -35 76 -103 124 -23 15 -54 44 -71 64 -17 19 -44
40 -60 47 -19 8 -121 12 -299 14 -164 1 -280 7 -297 13 -38 16 -65 49 -74 90
-4 21 -8 343 -9 717 -3 798 -5 865 -19 884 -6 8 -9 16 -7 18 4 7 -31 45 -59
63 -34 22 -57 49 -74 85 -19 39 -33 52 -104 90 -41 22 -62 41 -78 72 -28 55
-45 70 -103 99 -44 22 -79 68 -76 99 6 61 17 82 56 106 93 55 99 65 103 159 2
47 5 87 6 90 1 3 2 9 1 13 -3 16 29 65 53 80 34 23 93 28 361 31 127 2 238 6
247 10 9 4 24 24 34 44 17 35 18 127 15 1866 -2 1574 -4 1833 -17 1857 -15 29
-39 46 -77 56 -23 5 -4035 12 -4040 7z m998 -4024 c279 5 615 3 615 -3 0 -5 5
-5 10 -2 6 4 34 6 63 6 188 -4 336 -9 343 -13 5 -2 35 -4 66 -3 32 0 58 -2 58
-6 0 -3 19 -6 42 -8 23 -1 49 -7 57 -14 12 -10 13 -9 6 3 -6 12 -5 13 5 3 11
-10 17 -10 29 0 12 9 13 9 7 0 -4 -8 -2 -13 4 -13 6 0 8 -6 4 -12 -4 -7 3 -4
16 7 13 11 20 15 17 9 -4 -7 1 -18 10 -25 11 -10 14 -10 9 -2 -5 9 -2 11 9 7
12 -5 13 -10 4 -20 -6 -8 -15 -11 -20 -8 -15 9 -10 -3 9 -22 15 -15 15 -17 1
-12 -9 4 -22 1 -28 -5 -6 -6 -11 -8 -11 -4 0 4 -10 3 -21 -4 -17 -9 -20 -8
-13 3 6 10 5 11 -8 1 -8 -7 -18 -10 -21 -6 -4 3 -7 0 -7 -8 0 -11 -2 -11 -10
1 -7 12 -10 12 -10 1 0 -7 -6 -11 -14 -8 -8 3 -17 3 -20 -1 -8 -8 -32 -12 -78
-15 -21 -1 -38 -4 -38 -7 0 -3 -12 -5 -27 -5 -16 -1 -66 -4 -113 -8 -309 -27
-1171 -27 -1530 -2 -85 6 -145 12 -145 15 0 3 -68 10 -92 10 -12 0 -25 5 -28
10 -3 5 -12 7 -20 3 -9 -3 -23 1 -32 8 -14 12 -16 12 -8 -1 8 -13 6 -13 -8 -2
-9 8 -22 10 -28 6 -9 -5 -10 -2 -6 9 7 19 -8 32 -19 16 -5 -8 -3 -9 7 -4 8 5
10 4 6 0 -12 -14 -35 -14 -47 0 -8 10 -8 15 0 20 6 4 14 4 17 1 4 -3 1 -6 -6
-6 -7 0 -9 -5 -5 -11 4 -8 9 -7 15 2 6 10 1 20 -14 31 l-22 17 24 -6 c16 -4
22 -2 18 4 -7 11 22 28 31 18 3 -3 -1 -5 -8 -5 -7 0 -10 -3 -7 -6 4 -4 12 -2
19 4 12 10 45 17 113 27 183 24 182 24 469 30 143 3 261 6 262 8 2 2 18 2 36
0 18 -2 47 -3 63 -3z m1396 -93 c-6 -8 -8 -17 -4 -21 4 -4 -1 -4 -11 0 -18 7
-18 8 0 21 23 17 30 17 15 0z"/>
<path d="M5711 5167 c-8 -10 -7 -14 2 -14 8 0 14 6 14 14 0 7 -1 13 -2 13 -2
0 -8 -6 -14 -13z"/>
</g>
</svg>
